HIERARCHY
ROOT pelvis
{
  OFFSET 0 100 0
  CHANNELS 6 Xposition Yposition Zposition Zrotation Xrotation Yrotation
  JOINT pelvis_right_femur
  {
    OFFSET -10.78128 -3.44521 -0.5502486
    CHANNELS 3 Zrotation Xrotation Yrotation
    JOINT right_femur_tibia
    {
      OFFSET -0.8047443 -44.0398 -0.1307829
      CHANNELS 3 Zrotation Xrotation Yrotation
      JOINT right_tibia_foot
      {
        OFFSET 3.006224 -47.83518 -5
        CHANNELS 3 Zrotation Xrotation Yrotation
        End Site
        {
          OFFSET 0 -5 15
        }
      }
    }
  }
  JOINT pelvis_left_femur
  {
    OFFSET 10.78128 -3.44521 -0.5502486
    CHANNELS 3 Zrotation Xrotation Yrotation
    JOINT left_femur_tibia
    {
      OFFSET 0.8047443 -44.0398 -0.1307829
      CHANNELS 3 Zrotation Xrotation Yrotation
      JOINT left_tibia_foot
      {
        OFFSET -4.370144 -48.10324 -4.275266
        CHANNELS 3 Zrotation Xrotation Yrotation
        End Site
        {
          OFFSET 0 -5 15
        }
      }
    }
  }
  JOINT pelvis_spine1
  {
    OFFSET 0 6.468898 -3.129235
    CHANNELS 3 Zrotation Xrotation Yrotation
    JOINT spine1
    {
      OFFSET 0 23.15396 4.99043
      CHANNELS 3 Zrotation Xrotation Yrotation
      JOINT spine2
      {
        OFFSET 0 20.79997 -5.064912
        CHANNELS 3 Zrotation Xrotation Yrotation
        JOINT neck
        {
          OFFSET 0 14.38658 9.616178
          CHANNELS 3 Zrotation Xrotation Yrotation
          End Site
          {
            OFFSET 0 20 0
          }
        }
      }
      JOINT right_manubrium
      {
        OFFSET -5.722621 16.35077 3.967754
        CHANNELS 3 Zrotation Xrotation Yrotation
        JOINT right_clavicle
        {
          OFFSET -13.16364 1.694482 -4.693211
          CHANNELS 3 Zrotation Xrotation Yrotation
          JOINT right_humerus
          {
            OFFSET -28.5034 -0.3100689 -2.792744
            CHANNELS 3 Zrotation Xrotation Yrotation
            JOINT right_radius
            {
              OFFSET -25.15693 0.02248979 -1.271978
              CHANNELS 3 Zrotation Xrotation Yrotation
              End Site
              {
                OFFSET -15 0 0
              }
            }
          }
        }
      }
      JOINT left_manubrium
      {
        OFFSET 5.722621 16.35077 3.967754
        CHANNELS 3 Zrotation Xrotation Yrotation
        JOINT left_clavicle
        {
          OFFSET 13.16364 1.694482 -4.693211
          CHANNELS 3 Zrotation Xrotation Yrotation
          JOINT left_humerus
          {
            OFFSET 29.39168 -1.063119 -2.237045
            CHANNELS 3 Zrotation Xrotation Yrotation
            JOINT left_radius
            {
              OFFSET 24.59957 -0.9528479 0.9047498
              CHANNELS 3 Zrotation Xrotation Yrotation
              End Site
              {
                OFFSET 15 -0 -0
              }
            }
          }
        }
      }
    }
  }
}
MOTION
Frames: 15
Frame Time: 0.0416666666667
-971.3852 96.23357 2786.053 -4.620683 -5.271503 -41.64452 3.770675 -20.74688 -0.9799102 -0 11.15734 -0 -6.832239 0.1023194 -6.303439 -3.849696 17.14994 -7.122139 -0 30.95502 -0 -3.175745 -14.15043 13.46464 -1.892601 0.8939201 3.981804 0.7106677 9.400196 -6.182968 2.532988 22.9237 4.46988 1.48484 -15.77347 7.115758 1.549655 -15.03687 10.20004 87.89955 23.96512 -16.17898 -0 0 11.39783 -19.74821 11.00593 10.03653 4.911683 -19.21624 -4.120592 -84.41079 23.05505 8.864415 0 0 -19.15925 1.811274 6.86129 10.8932
-976.3518 96.45738 2790.945 -5.326093 -5.774879 -42.13395 4.666927 -17.60422 -0.3063593 -0 12.29254 -0 -7.632422 0.3010235 -6.2253 -3.630383 15.76253 -6.950452 -0 38.91578 -0 -3.431754 -11.83583 13.85937 -1.899757 0.9453344 4.023387 0.6231631 9.310547 -5.957436 2.59991 23.05746 4.377278 1.470591 -15.64804 7.100202 1.508238 -15.12677 10.17289 87.61019 23.95584 -15.50502 -0 0 11.68285 -19.70743 10.83019 10.12703 4.866035 -18.91756 -4.033844 -84.78939 23.15787 9.364164 0 0 -18.26299 1.771912 7.124776 10.9046
-981.2869 97.17737 2795.7 -6.109612 -6.405522 -42.84152 5.424167 -13.75564 0.4559844 -0 14.13308 -0 -8.230355 0.06171159 -6.089108 -3.344987 13.0264 -6.761644 -0 46.45843 -0 -3.580351 -9.578261 14.56707 -1.90666 0.9967487 4.173127 0.4819415 9.231697 -5.638238 2.660327 23.19246 4.288564 1.46419 -15.54471 7.074103 1.434329 -15.39548 10.1469 87.17098 23.81859 -14.54908 -0 0 12.30114 -19.79045 10.55072 10.31107 4.789309 -18.488 -3.924285 -85.42084 23.33189 10.31265 0 0 -17.001 1.591663 7.286017 11.11756
-986.0637 98.24423 2800.218 -6.827658 -6.9956 -43.7218 5.972511 -9.504909 1.223445 -0 15.86247 -0 -8.469872 -0.7992332 -5.857544 -2.946483 8.872372 -6.497483 -0 52.41149 -0 -3.661925 -7.667463 15.5123 -1.911632 1.047192 4.402688 0.3016244 9.16111 -5.251573 2.71648 23.32846 4.201731 1.460136 -15.46507 7.042519 1.326291 -15.80203 10.11984 86.64376 23.5606 -13.39974 -0 0 13.16465 -19.95811 10.18148 10.55802 4.688548 -17.96411 -3.798892 -86.24793 23.55739 11.59755 0 0 -15.48424 1.298819 7.362499 11.49397
-990.5948 99.41449 2804.464 -7.346618 -7.388709 -44.71297 6.277583 -5.124241 1.911159 -0 16.77306 -0 -8.253365 -2.415308 -5.508447 -2.382589 3.441325 -6.099655 -0 55.70433 -0 -3.720077 -6.312284 16.56534 -1.9132 1.095564 4.691814 0.09414904 9.099197 -4.815948 2.768619 23.46316 4.11644 1.454985 -15.41655 7.008646 1.184878 -16.31888 10.09319 86.07098 23.20302 -12.11361 -0 0 14.20566 -20.18497 9.739161 10.85506 4.566451 -17.37278 -3.660607 -87.23073 23.80439 13.14505 0 0 -13.79095 0.9255314 7.373156 11.99268
-994.855 100.4082 2808.484 -7.56898 -7.480378 -45.74687 6.333815 -0.8154861 2.443175 -0 16.46356 -0 -7.56735 -4.801896 -5.038296 -1.614293 -2.870757 -5.528636 -0 55.61505 -0 -3.791022 -5.59516 17.57005 -1.910012 1.140242 5.030088 -0.132308 9.049851 -4.34213 2.814808 23.59232 4.033731 1.447405 -15.41123 6.973045 1.01117 -16.93495 10.07107 85.47654 22.76925 -10.71705 -0 0 15.38307 -20.4603 9.237315 11.2043 4.421957 -16.73134 -3.509938 -88.34807 24.03786 14.92208 0 0 -11.96578 0.5011151 7.332377 12.57781
-998.8868 100.9826 2812.392 -7.456901 -7.246704 -46.76102 6.153291 3.303328 2.771436 -0 14.99569 -0 -6.488532 -7.777299 -4.461856 -0.6492567 -9.434787 -4.792149 -0 52.00993 -0 -3.898575 -5.457493 18.38843 -1.900242 1.17862 5.413461 -0.372061 9.020263 -3.836968 2.851598 23.71005 3.955283 1.437033 -15.46406 6.934433 0.8050271 -17.6507 10.05906 84.87551 22.27936 -9.221341 -0 0 16.67324 -20.78275 8.687037 11.61549 4.251952 -16.0531 -3.347192 -89.58841 24.21909 16.91915 0 0 -10.03635 0.05205371 7.250666 13.21817
-1002.786 100.9993 2816.335 -7.045302 -6.751429 -47.70651 5.756535 7.174968 2.894258 -0 12.94194 -0 -5.172036 -10.91368 -3.813282 0.4161304 -15.49476 -3.979423 -0 45.4817 -0 -4.049077 -5.725369 18.94491 -1.881089 1.206875 5.836848 -0.6190959 9.019847 -3.309682 2.875195 23.80954 3.882719 1.423289 -15.5897 6.891232 0.5652341 -18.46642 10.06297 84.28713 21.75204 -7.645451 -0 0 18.04928 -21.15161 8.102474 12.09587 4.054288 -15.35659 -3.175171 -90.93206 24.30661 19.11837 0 0 -8.039802 -0.3927588 7.141202 13.87883
-1006.675 100.4644 2820.456 -6.436568 -6.127391 -48.54854 5.169729 10.74825 2.859713 -0 11.26975 -0 -3.82719 -13.56911 -3.149237 1.373115 -20.33919 -3.278289 -0 37.29314 -0 -4.223907 -6.17136 19.24744 -1.849086 1.220444 6.283668 -0.8635974 9.057269 -2.779355 2.883114 23.88525 3.817265 1.405233 -15.79583 6.843278 0.2923413 -19.36388 10.08692 83.74604 21.21248 -6.042854 -0 0 19.4528 -21.55567 7.508212 12.637 3.832777 -14.67609 -3.002405 -92.32695 24.26296 21.449 0 0 -6.053251 -0.7951874 7.030207 14.50894
-1010.668 99.52921 2824.861 -5.775755 -5.537516 -49.26142 4.428741 13.91511 2.746516 -0 11.06238 -0 -2.680914 -15.03482 -2.545949 1.942452 -23.47436 -2.932614 -0 29.08613 -0 -4.376368 -6.592878 19.37185 -1.802252 1.216013 6.716221 -1.0898 9.134477 -2.279779 2.87606 23.9375 3.760322 1.383648 -16.07259 6.792968 -0.005330386 -20.28574 10.13063 83.30361 20.70143 -4.520523 -0 0 20.77018 -21.96403 6.942404 13.20156 3.603422 -14.06714 -2.845483 -93.67001 24.07293 23.74717 0 0 -4.211417 -1.105911 6.964822 15.03431
-1014.848 98.45214 2829.597 -5.214558 -5.129058 -49.82293 3.586411 16.47333 2.62912 -0 13.1555 -0 -1.924135 -14.77599 -2.079374 1.898859 -24.71949 -3.126034 -0 22.41818 -0 -4.4415 -6.877866 19.41495 -1.744145 1.19505 7.07699 -1.278695 9.239347 -1.853677 2.858793 23.97758 3.715308 1.36536 -16.38379 6.74479 -0.3049724 -21.12977 10.18719 83.00891 20.27626 -3.223255 -0 0 21.8411 -22.32846 6.447569 13.72249 3.396979 -13.59495 -2.726397 -94.82037 23.76603 25.76327 0 0 -2.680087 -1.274909 7.007075 15.36826
-1019.237 97.5291 2834.647 -4.876259 -4.997319 -50.21204 2.717076 18.14129 2.544617 -0 17.8254 -0 -1.653136 -12.67025 -1.796042 1.201412 -24.18583 -3.867205 -0 18.29307 -0 -4.357304 -7.031989 19.44189 -1.686249 1.166124 7.309637 -1.416941 9.344242 -1.532839 2.838592 24.02781 3.689235 1.365585 -16.67267 6.70332 -0.5698109 -21.77903 10.24477 82.87507 19.99574 -2.268841 -0 0 22.51995 -22.60476 6.051031 14.12748 3.250444 -13.30287 -2.662423 -95.65911 23.41623 27.25363 0 0 -1.5756 -1.272949 7.20944 15.44497
-1023.786 97.01223 2839.926 -4.829872 -5.169143 -50.4106 1.910419 18.62466 2.480187 -0 24.65707 -0 -1.842415 -9.112845 -1.705929 0.01654527 -22.17363 -4.982597 -0 16.88711 -0 -4.085935 -7.159807 19.45786 -1.643247 1.141585 7.388253 -1.505258 9.41778 -1.319051 2.821921 24.1116 3.690794 1.401997 -16.88684 6.671877 -0.7639917 -22.15895 10.29254 82.86551 19.89477 -1.680628 -0 0 22.75322 -22.77983 5.754544 14.37697 3.18907 -13.18632 -2.655759 -96.15337 23.10247 28.10542 0 0 -0.8949616 -1.105848 7.590138 15.25163
-1028.384 97.04099 2845.295 -5.075513 -5.60602 -50.40701 1.249892 17.70627 2.388858 -0 32.64099 -0 -2.36799 -4.909223 -1.80864 -1.37674 -19.05477 -6.217398 -0 17.58855 -0 -3.625601 -7.414772 19.41813 -1.623398 1.129746 7.326718 -1.556705 9.442804 -1.187467 2.811878 24.24029 3.725619 1.48364 -17.00461 6.65316 -0.8727455 -22.27151 10.32602 82.92303 19.97004 -1.39138 -0 0 22.5958 -22.87673 5.544673 14.47917 3.214954 -13.20334 -2.694882 -96.3584 22.8638 28.37585 0 0 -0.5386672 -0.8049371 8.132039 14.82656
-1032.889 97.60673 2850.586 -5.541734 -6.219136 -50.19895 0.7839145 15.31815 2.221635 -0 40.44424 -0 -3.056981 -0.9951445 -2.117798 -2.708569 -15.19117 -7.348492 -0 19.30913 -0 -3.012374 -7.94326 19.264 -1.624555 1.130552 7.160442 -1.586754 9.422765 -1.108109 2.80787 24.40979 3.794406 1.607169 -17.03844 6.6499 -0.9072659 -22.17468 10.34695 83.01012 20.18878 -1.310498 -0 0 22.15304 -22.93375 5.4074 14.46957 3.313186 -13.30944 -2.765889 -96.36168 22.694 28.21435 0 0 -0.3979711 -0.4039784 8.801283 14.22679
